<mxfile modified="2021-05-12T16:02:47.594Z" host="app.diagrams.net" agent="5.0 (Windows NT 10.0; Win64; x64) AppleWebKit/537.36 (KHTML, like Gecko) Chrome/90.0.4430.93 Safari/537.36" etag="3Ci__kNHclwfmp_ZOGMi" version="14.6.9" type="github">
  <diagram id="Ht1M8jgEwFfnCIfOTk4-" name="Page-1">
    <mxGraphModel dx="1422" dy="737" grid="1" gridSize="10" guides="1" tooltips="1" connect="1" arrows="1" fold="1" page="1" pageScale="1" pageWidth="1169" pageHeight="827" math="0" shadow="0">
      <root>
        <mxCell id="0" />
        <mxCell id="1" parent="0" />
        <mxCell id="dE47ROB5_2UvVx-lNuy7-37" value="" style="whiteSpace=wrap;html=1;aspect=fixed;fillColor=#E6E6E6;" vertex="1" parent="1">
          <mxGeometry x="464.6" y="18" width="635.4" height="635.4" as="geometry" />
        </mxCell>
        <mxCell id="dE47ROB5_2UvVx-lNuy7-39" style="edgeStyle=orthogonalEdgeStyle;rounded=0;orthogonalLoop=1;jettySize=auto;html=1;fillColor=#00CCCC;gradientColor=none;dashed=1;strokeWidth=2;strokeColor=#00CCCC;" edge="1" parent="1" source="dE47ROB5_2UvVx-lNuy7-33" target="dE47ROB5_2UvVx-lNuy7-24">
          <mxGeometry relative="1" as="geometry">
            <Array as="points">
              <mxPoint x="777" y="715" />
            </Array>
          </mxGeometry>
        </mxCell>
        <mxCell id="dE47ROB5_2UvVx-lNuy7-1" value="" style="edgeStyle=orthogonalEdgeStyle;rounded=0;orthogonalLoop=1;jettySize=auto;html=1;strokeColor=#007FFF;shape=flexArrow;fillColor=#007FFF;strokeWidth=1;" edge="1" parent="1" source="dE47ROB5_2UvVx-lNuy7-3" target="dE47ROB5_2UvVx-lNuy7-4">
          <mxGeometry relative="1" as="geometry">
            <mxPoint x="423.7" y="148" as="sourcePoint" />
            <mxPoint x="462.7" y="246" as="targetPoint" />
            <Array as="points">
              <mxPoint x="550" y="266" />
              <mxPoint x="550" y="70" />
            </Array>
          </mxGeometry>
        </mxCell>
        <mxCell id="dE47ROB5_2UvVx-lNuy7-18" style="edgeStyle=orthogonalEdgeStyle;rounded=0;orthogonalLoop=1;jettySize=auto;html=1;strokeColor=#007FFF;shape=flexArrow;fillColor=#007FFF;" edge="1" parent="1" source="dE47ROB5_2UvVx-lNuy7-3" target="dE47ROB5_2UvVx-lNuy7-5">
          <mxGeometry relative="1" as="geometry">
            <Array as="points">
              <mxPoint x="350" y="266" />
              <mxPoint x="350" y="266" />
            </Array>
          </mxGeometry>
        </mxCell>
        <mxCell id="dE47ROB5_2UvVx-lNuy7-3" value="" style="shape=image;html=1;verticalAlign=top;verticalLabelPosition=bottom;labelBackgroundColor=#ffffff;imageAspect=0;aspect=fixed;image=https://cdn1.iconfinder.com/data/icons/line-free/24/Smart_watch-128.png" vertex="1" parent="1">
          <mxGeometry x="70" y="201.5" width="128" height="128" as="geometry" />
        </mxCell>
        <mxCell id="dE47ROB5_2UvVx-lNuy7-29" style="edgeStyle=orthogonalEdgeStyle;shape=flexArrow;rounded=0;orthogonalLoop=1;jettySize=auto;html=1;entryX=0.5;entryY=0;entryDx=0;entryDy=0;entryPerimeter=0;strokeColor=#007FFF;fillColor=#007FFF;gradientColor=none;" edge="1" parent="1" source="dE47ROB5_2UvVx-lNuy7-4" target="dE47ROB5_2UvVx-lNuy7-5">
          <mxGeometry relative="1" as="geometry" />
        </mxCell>
        <mxCell id="dE47ROB5_2UvVx-lNuy7-4" value="&lt;font style=&quot;font-size: 20px ; background-color: rgb(230 , 230 , 230)&quot; color=&quot;#007fff&quot;&gt;Almacenamiento&lt;/font&gt;" style="aspect=fixed;perimeter=ellipsePerimeter;html=1;align=center;shadow=0;dashed=0;spacingTop=3;image;image=img/lib/active_directory/database.svg;" vertex="1" parent="1">
          <mxGeometry x="746.6999999999999" y="30" width="108.11" height="80" as="geometry" />
        </mxCell>
        <mxCell id="dE47ROB5_2UvVx-lNuy7-28" style="edgeStyle=orthogonalEdgeStyle;shape=flexArrow;rounded=0;orthogonalLoop=1;jettySize=auto;html=1;strokeColor=#007FFF;fillColor=#007FFF;gradientColor=none;" edge="1" parent="1" source="dE47ROB5_2UvVx-lNuy7-5" target="dE47ROB5_2UvVx-lNuy7-27">
          <mxGeometry relative="1" as="geometry" />
        </mxCell>
        <mxCell id="dE47ROB5_2UvVx-lNuy7-30" value="" style="edgeStyle=orthogonalEdgeStyle;shape=flexArrow;rounded=0;orthogonalLoop=1;jettySize=auto;html=1;strokeColor=#007FFF;fillColor=#007FFF;gradientColor=none;entryX=0.644;entryY=-0.015;entryDx=0;entryDy=0;entryPerimeter=0;" edge="1" parent="1" source="dE47ROB5_2UvVx-lNuy7-5" target="dE47ROB5_2UvVx-lNuy7-24">
          <mxGeometry relative="1" as="geometry" />
        </mxCell>
        <mxCell id="dE47ROB5_2UvVx-lNuy7-5" value="&lt;font style=&quot;font-size: 20px ; background-color: rgb(230 , 230 , 230)&quot; color=&quot;#007fff&quot;&gt;Machine Learning&lt;/font&gt;" style="points=[[0,0,0],[0.25,0,0],[0.5,0,0],[0.75,0,0],[1,0,0],[0,1,0],[0.25,1,0],[0.5,1,0],[0.75,1,0],[1,1,0],[0,0.25,0],[0,0.5,0],[0,0.75,0],[1,0.25,0],[1,0.5,0],[1,0.75,0]];outlineConnect=0;fontColor=#232F3E;gradientColor=#4AB29A;gradientDirection=north;fillColor=#116D5B;strokeColor=#ffffff;dashed=0;verticalLabelPosition=bottom;verticalAlign=top;align=center;html=1;fontSize=12;fontStyle=0;aspect=fixed;shape=mxgraph.aws4.resourceIcon;resIcon=mxgraph.aws4.machine_learning;" vertex="1" parent="1">
          <mxGeometry x="750" y="200" width="101.5" height="101.5" as="geometry" />
        </mxCell>
        <mxCell id="dE47ROB5_2UvVx-lNuy7-26" style="edgeStyle=orthogonalEdgeStyle;shape=flexArrow;rounded=0;orthogonalLoop=1;jettySize=auto;html=1;entryX=0;entryY=0.5;entryDx=0;entryDy=0;entryPerimeter=0;strokeColor=#007FFF;fillColor=#007FFF;gradientColor=none;" edge="1" parent="1" source="dE47ROB5_2UvVx-lNuy7-23" target="dE47ROB5_2UvVx-lNuy7-24">
          <mxGeometry relative="1" as="geometry">
            <Array as="points">
              <mxPoint x="550" y="265" />
              <mxPoint x="550" y="485" />
            </Array>
          </mxGeometry>
        </mxCell>
        <mxCell id="dE47ROB5_2UvVx-lNuy7-23" value="" style="aspect=fixed;perimeter=ellipsePerimeter;html=1;align=center;shadow=0;dashed=0;spacingTop=3;image;image=img/lib/active_directory/internet_cloud.svg;" vertex="1" parent="1">
          <mxGeometry x="270" y="210" width="174.6" height="110" as="geometry" />
        </mxCell>
        <mxCell id="dE47ROB5_2UvVx-lNuy7-24" value="&lt;font style=&quot;font-size: 20px ; background-color: rgb(230 , 230 , 230)&quot; color=&quot;#007fff&quot;&gt;Modulo de Monitoreo&lt;/font&gt;" style="points=[[0.015,0.015,0],[0.985,0.015,0],[0.985,0.985,0],[0.015,0.985,0],[0.25,0,0],[0.5,0,0],[0.75,0,0],[1,0.25,0],[1,0.5,0],[1,0.75,0],[0.75,1,0],[0.5,1,0],[0.25,1,0],[0,0.75,0],[0,0.5,0],[0,0.25,0]];verticalLabelPosition=bottom;html=1;verticalAlign=top;aspect=fixed;align=center;pointerEvents=1;shape=mxgraph.cisco19.rect;prIcon=monitor;fillColor=#FAFAFA;strokeColor=#005073;" vertex="1" parent="1">
          <mxGeometry x="693.81" y="420" width="166.4" height="130" as="geometry" />
        </mxCell>
        <mxCell id="dE47ROB5_2UvVx-lNuy7-27" value="&lt;font style=&quot;font-size: 20px ; background-color: rgb(230 , 230 , 230)&quot; color=&quot;#007fff&quot;&gt;Modulo de Alertas&lt;/font&gt;" style="aspect=fixed;perimeter=ellipsePerimeter;html=1;align=center;shadow=0;dashed=0;fontColor=#4277BB;labelBackgroundColor=#ffffff;fontSize=12;spacingTop=3;image;image=img/lib/ibm/management/alert_notification.svg;" vertex="1" parent="1">
          <mxGeometry x="950" y="441.5" width="79.25" height="79.25" as="geometry" />
        </mxCell>
        <mxCell id="dE47ROB5_2UvVx-lNuy7-34" style="edgeStyle=orthogonalEdgeStyle;rounded=0;orthogonalLoop=1;jettySize=auto;html=1;fillColor=#d5e8d4;dashed=1;strokeWidth=2;strokeColor=#00CCCC;" edge="1" parent="1" source="dE47ROB5_2UvVx-lNuy7-32" target="dE47ROB5_2UvVx-lNuy7-33">
          <mxGeometry relative="1" as="geometry">
            <Array as="points">
              <mxPoint x="240" y="715" />
              <mxPoint x="240" y="715" />
            </Array>
          </mxGeometry>
        </mxCell>
        <mxCell id="dE47ROB5_2UvVx-lNuy7-32" value="&lt;font style=&quot;font-size: 20px&quot; color=&quot;#007fff&quot;&gt;Supervisor&lt;/font&gt;" style="shape=umlActor;verticalLabelPosition=bottom;verticalAlign=top;html=1;outlineConnect=0;fillColor=#99FFFF;strokeWidth=3;" vertex="1" parent="1">
          <mxGeometry x="100" y="685" width="30" height="60" as="geometry" />
        </mxCell>
        <mxCell id="dE47ROB5_2UvVx-lNuy7-33" value="" style="aspect=fixed;perimeter=ellipsePerimeter;html=1;align=center;shadow=0;dashed=0;spacingTop=3;image;image=img/lib/active_directory/internet_cloud.svg;" vertex="1" parent="1">
          <mxGeometry x="290" y="660" width="174.6" height="110" as="geometry" />
        </mxCell>
        <mxCell id="dE47ROB5_2UvVx-lNuy7-40" style="edgeStyle=orthogonalEdgeStyle;rounded=0;orthogonalLoop=1;jettySize=auto;html=1;entryX=0.5;entryY=1;entryDx=0;entryDy=0;fillColor=#00CCCC;gradientColor=none;dashed=1;endSize=5;startSize=5;strokeWidth=2;strokeColor=#00CCCC;" edge="1" parent="1" source="dE47ROB5_2UvVx-lNuy7-33" target="dE47ROB5_2UvVx-lNuy7-27">
          <mxGeometry relative="1" as="geometry" />
        </mxCell>
        <mxCell id="dE47ROB5_2UvVx-lNuy7-44" value="&lt;font style=&quot;font-size: 20px&quot; color=&quot;#666666&quot;&gt;ComputaciÃ³n en la nube&lt;/font&gt;" style="text;html=1;strokeColor=none;fillColor=none;align=center;verticalAlign=middle;whiteSpace=wrap;rounded=0;" vertex="1" parent="1">
          <mxGeometry x="470" y="630" width="260" height="10" as="geometry" />
        </mxCell>
        <mxCell id="dE47ROB5_2UvVx-lNuy7-47" value="&lt;font style=&quot;font-size: 20px&quot; color=&quot;#007fff&quot;&gt;Dispositivo inteligente&lt;/font&gt;" style="text;html=1;strokeColor=none;fillColor=none;align=center;verticalAlign=middle;whiteSpace=wrap;rounded=0;strokeWidth=3;" vertex="1" parent="1">
          <mxGeometry x="70" y="340" width="120" height="40" as="geometry" />
        </mxCell>
      </root>
    </mxGraphModel>
  </diagram>
</mxfile>
